<svg xmlns="http://www.w3.org/2000/svg" version="1.1" xmlns:xlink="http://www.w3.org/1999/xlink" width="1000" height="1000"><g clip-path="url(#SvgjsClipPath1145)"><rect width="1000" height="1000" fill="#ffffff"></rect><g transform="matrix(0.87890625,0,0,0.87890625,50,50)"><svg xmlns="http://www.w3.org/2000/svg" version="1.1" id="_レイヤー_1" viewBox="0 0 1024 1024" width="1024" height="1024"><g>
    <path d="M725.78,292.34c-15.58.73-31.03,2-46.55,4.36-1.39-31.82-17.15-66.79-37.82-90.92-81.95-95.71-239.23-71.7-286.27,45.4-32.31,80.43,14.36,157.95,64.98,217.9l-31.15,32.73-9.46-9.46c-56.13-66.91-99.1-150.07-73.46-239.29,28.97-100.8,130.5-164.92,234.14-151.16,103.65,13.76,175.53,91.64,185.53,190.5l.06-.06Z"></path>
    <path d="M299.56,733.11c15.7,1.15,31.03-2.24,46.55-2.91,2.73,44.73,30.18,87.7,65.58,114.07,84.98,63.4,208.99,32.18,253.29-63.64,37.94-82.07-7.94-161.71-59.76-224.57l.48-3.39c7.82-8.42,17.21-16.12,24.85-24.67,2.79-3.09,1.58-6.91,7.27-3.03,39.76,45.16,75.4,98.68,84.92,159.47,21.88,139.04-102.07,255.54-239.11,237.66-95.28-12.43-176.38-92.25-184.14-189.05l.06.06Z"></path>
    <path d="M285.01,306.89c0,15.09,3.39,30,4.36,45.09-64.49,5.39-121.28,55.34-137.83,117.46-31.88,119.95,78.25,231.84,199.23,197.77,41.4-11.7,81.89-38.85,115.46-65.04l2.06.61c9.88,9.03,19.64,18.3,29.76,27.03,1.03.91,2.24,1.52,3.64,1.39,2,1.52-7.94,8.97-9.46,10.18-81.04,64.19-182.99,108.92-282.51,54.13-144.26-79.52-147.53-286.75-1.45-365.67,23.15-12.49,50.31-21.7,76.67-23.03l.06.06Z"></path>
    <path d="M738.99,719.9c-2.91-7.09-.91-14.91-1.64-22.37-.61-6.18-2.12-13.82-3.15-20.18-.18-.97-1.58-2.12-1.15-2.49,31.64-3.82,60.43-16.49,85.1-36.37,25.82-20.79,45.22-50.79,53.82-82.92,19.15-71.34-10.24-142.07-72.13-181.05-84.31-53.1-174.26-5.03-243.6,48.43l-34.12-31.03c46.55-37.88,104.68-74.61,165.23-83.52,141.71-20.91,257.48,101.22,233.23,241.96-15.46,89.7-90.86,160.62-181.59,169.53h0Z"></path>
    <path d="M666.13,714.2c-31.64-7.88-61.22-22.67-88.61-40.12-51.34-32.67-95.1-75.4-138.19-117.95-.67-2.36,2.06-5.64,3.64-7.7,6.61-8.91,18.18-16.79,25.34-25.64h2.97l50.85,49.58c40.06,35.03,82.43,68.25,131.77,89.34,5.88,4.91,14.36,50.25,12.3,52.43l-.06.06Z"></path>
    <path d="M558.19,500c-5.52,5.15-9.21-2.97-12-5.52-53.46-49.58-106.43-102.98-176.14-130.8-6.3-4.97-12.67-41.7-12.3-50.97,13.03,2.49,25.58,7.27,37.82,12.36,65.34,27.09,119.16,75.28,168.8,123.59,2.85,2.79,19.76,19.09,20.18,20.61.36,1.27.24,2.42-.55,3.45-7.7,7.82-15.7,15.4-23.4,23.21-1.27,1.33-1.7,3.33-2.42,4.06h0Z"></path>
    <path d="M501.64,474.06c-.48.42-2.61.73-4.3,2.24-43.52,38.73-97.34,95.83-125.34,146.74-2.97,5.39-11.82,26.67-14.91,28.73-2.36,1.58-8.91,3.03-12.12,3.88-12.49,3.45-25.21,5.58-38.19,4.73,11.76-44.73,38.06-85.83,66.91-121.47,24.67-30.49,55.58-62.37,85.1-88.01,2.91-2.55,7.7-9.7,11.46-8.61l31.34,28.43c.3.85.42,3.09,0,3.39l.06-.06Z"></path>
    <path d="M717.05,363.62c-5.76,26.67-18.49,52.43-32.85,75.52-29.09,46.85-68.98,86.86-108.31,124.44-4.06,3.88-17.21,18.91-21.27,19.52l-31.09-26.67c-4.61-5.76,5.09-9.7,8.85-13.09,19.27-17.76,37.64-37.52,55.22-56.79,30.67-33.52,59.94-68.98,77.82-111.28,2.06-2.18,22.3-7.64,26.55-8.36,8.36-1.52,16.97-1.15,25.09-3.27h0Z"></path>
  </g><path d="M512,1009.13c-274.15,0-497.13-222.99-497.13-497.13S237.85,14.87,512,14.87s497.13,222.99,497.13,497.13-222.99,497.13-497.13,497.13ZM512,45.17C254.58,45.17,45.17,254.58,45.17,512s209.41,466.83,466.83,466.83,466.83-209.41,466.83-466.83S769.42,45.17,512,45.17Z"></path></svg></g></g><defs><clipPath id="SvgjsClipPath1145"><rect width="1000" height="1000" x="0" y="0" rx="0" ry="0"></rect></clipPath></defs></svg>